<svg width="40" height="40" viewBox="0 0 40 40" fill="none" xmlns="http://www.w3.org/2000/svg">
        <path d="M0 20C0 8.95431 8.95431 0 20 0C31.0457 0 40 8.95431 40 20C40 31.0457 31.0457 40 20 40C8.95431 40 0 31.0457 0 20Z" fill="#F4FECD"/>
        <path d="M20 10.25C18.0716 10.25 16.1866 10.8218 14.5832 11.8932C12.9798 12.9645 11.7301 14.4873 10.9922 16.2688C10.2542 18.0504 10.0611 20.0108 10.4373 21.9021C10.8136 23.7934 11.7422 25.5307 13.1057 26.8943C14.4693 28.2579 16.2066 29.1865 18.0979 29.5627C19.9892 29.9389 21.9496 29.7458 23.7312 29.0078C25.5127 28.2699 27.0355 27.0202 28.1068 25.4168C29.1782 23.8134 29.75 21.9284 29.75 20C29.7473 17.415 28.7192 14.9366 26.8913 13.1087C25.0634 11.2808 22.585 10.2527 20 10.25ZM20 28.25C18.3683 28.25 16.7733 27.7661 15.4165 26.8596C14.0598 25.9531 13.0024 24.6646 12.378 23.1571C11.7536 21.6496 11.5902 19.9908 11.9085 18.3905C12.2269 16.7902 13.0126 15.3202 14.1664 14.1664C15.3202 13.0126 16.7902 12.2268 18.3905 11.9085C19.9909 11.5902 21.6497 11.7536 23.1571 12.378C24.6646 13.0024 25.9531 14.0598 26.8596 15.4165C27.7661 16.7733 28.25 18.3683 28.25 20C28.2475 22.1873 27.3775 24.2843 25.8309 25.8309C24.2843 27.3775 22.1873 28.2475 20 28.25ZM24.2806 17.9694C24.3504 18.039 24.4057 18.1217 24.4434 18.2128C24.4812 18.3038 24.5006 18.4014 24.5006 18.5C24.5006 18.5986 24.4812 18.6962 24.4434 18.7872C24.4057 18.8783 24.3504 18.961 24.2806 19.0306L20.5306 22.7806C20.461 22.8504 20.3783 22.9057 20.2872 22.9434C20.1962 22.9812 20.0986 23.0006 20 23.0006C19.9014 23.0006 19.8038 22.9812 19.7128 22.9434C19.6218 22.9057 19.539 22.8504 19.4694 22.7806L15.7194 19.0306C15.5786 18.8899 15.4996 18.699 15.4996 18.5C15.4996 18.301 15.5786 18.1101 15.7194 17.9694C15.8601 17.8286 16.051 17.7496 16.25 17.7496C16.449 17.7496 16.6399 17.8286 16.7806 17.9694L20 21.1897L23.2194 17.9694C23.289 17.8996 23.3718 17.8443 23.4628 17.8066C23.5538 17.7688 23.6514 17.7494 23.75 17.7494C23.8486 17.7494 23.9462 17.7688 24.0372 17.8066C24.1283 17.8443 24.211 17.8996 24.2806 17.9694Z" fill="#546902"/>
      </svg>