<svg width="28" height="28" viewBox="0 0 28 28" fill="none" xmlns="http://www.w3.org/2000/svg">
          <rect width="28" height="28" fill="#E5E5E5"/>
          <path d="M-160 -204C-160 -205.105 -159.105 -206 -158 -206H5019C5020.1 -206 5021 -205.105 5021 -204V3467C5021 3468.1 5020.1 3469 5019 3469H-158C-159.105 3469 -160 3468.1 -160 3467V-204Z" fill="#D9D9D9"/>
          <path d="M-158 -205H5019V-207H-158V-205ZM5020 -204V3467H5022V-204H5020ZM5019 3468H-158V3470H5019V3468ZM-159 3467V-204H-161V3467H-159ZM-158 3468C-158.552 3468 -159 3467.55 -159 3467H-161C-161 3468.66 -159.657 3470 -158 3470V3468ZM5020 3467C5020 3467.55 5019.55 3468 5019 3468V3470C5020.66 3470 5022 3468.66 5022 3467H5020ZM5019 -205C5019.55 -205 5020 -204.552 5020 -204H5022C5022 -205.657 5020.66 -207 5019 -207V-205ZM-158 -207C-159.657 -207 -161 -205.657 -161 -204H-159C-159 -204.552 -158.552 -205 -158 -205V-207Z" fill="black" fill-opacity="0.1"/>
          <rect width="1440" height="1024" transform="translate(-80 -126)" fill="#F1F3F8"/>
          <rect x="-15.5" y="-21.5" width="1311" height="151" rx="11.5" fill="#FEFFFA"/>
          <rect x="-15.5" y="-21.5" width="1311" height="151" rx="11.5" stroke="#EEEFEB"/>
          <rect x="0.5" y="0.5" width="27" height="27" rx="7.5" fill="#FAFFFE"/>
          <rect x="0.5" y="0.5" width="27" height="27" rx="7.5" stroke="#DDE0E4"/>
          <mask id="path-5-outside-1_8_1428" maskUnits="userSpaceOnUse" x="6.50197" y="7.49998" width="15" height="14" fill="black">
          <rect fill="white" x="6.50197" y="7.49998" width="15" height="14"/>
          <path d="M20.4125 9.09563C20.3355 8.91782 20.208 8.76656 20.0458 8.66066C19.8835 8.55476 19.6937 8.49889 19.5 8.5H8.5C8.30646 8.50038 8.11718 8.55692 7.95514 8.66276C7.7931 8.76859 7.66525 8.91917 7.5871 9.09624C7.50896 9.27331 7.48388 9.46925 7.5149 9.66029C7.54592 9.85133 7.63172 10.0293 7.76187 10.1725L7.76687 10.1781L12 14.6981V19.5C12 19.681 12.049 19.8586 12.142 20.0139C12.235 20.1692 12.3683 20.2963 12.5279 20.3818C12.6874 20.4672 12.8672 20.5078 13.0479 20.4991C13.2287 20.4904 13.4037 20.4328 13.5544 20.3325L15.5544 18.9987C15.6915 18.9074 15.8039 18.7836 15.8816 18.6384C15.9594 18.4932 16 18.331 16 18.1663V14.6981L20.2337 10.1781L20.2387 10.1725C20.3703 10.0299 20.4569 9.85174 20.4878 9.66023C20.5187 9.46872 20.4925 9.27235 20.4125 9.09563ZM15.1362 14.1613C15.0498 14.253 15.0011 14.3739 15 14.5V18.1663L13 19.5V14.5C13 14.373 12.9518 14.2508 12.865 14.1581L8.5 9.5H19.5L15.1362 14.1613Z"/>
          </mask>
          <path d="M20.4125 9.09563C20.3355 8.91782 20.208 8.76656 20.0458 8.66066C19.8835 8.55476 19.6937 8.49889 19.5 8.5H8.5C8.30646 8.50038 8.11718 8.55692 7.95514 8.66276C7.7931 8.76859 7.66525 8.91917 7.5871 9.09624C7.50896 9.27331 7.48388 9.46925 7.5149 9.66029C7.54592 9.85133 7.63172 10.0293 7.76187 10.1725L7.76687 10.1781L12 14.6981V19.5C12 19.681 12.049 19.8586 12.142 20.0139C12.235 20.1692 12.3683 20.2963 12.5279 20.3818C12.6874 20.4672 12.8672 20.5078 13.0479 20.4991C13.2287 20.4904 13.4037 20.4328 13.5544 20.3325L15.5544 18.9987C15.6915 18.9074 15.8039 18.7836 15.8816 18.6384C15.9594 18.4932 16 18.331 16 18.1663V14.6981L20.2337 10.1781L20.2387 10.1725C20.3703 10.0299 20.4569 9.85174 20.4878 9.66023C20.5187 9.46872 20.4925 9.27235 20.4125 9.09563ZM15.1362 14.1613C15.0498 14.253 15.0011 14.3739 15 14.5V18.1663L13 19.5V14.5C13 14.373 12.9518 14.2508 12.865 14.1581L8.5 9.5H19.5L15.1362 14.1613Z" fill="#49454D"/>
          <path d="M20.4125 9.09563C20.3355 8.91782 20.208 8.76656 20.0458 8.66066C19.8835 8.55476 19.6937 8.49889 19.5 8.5H8.5C8.30646 8.50038 8.11718 8.55692 7.95514 8.66276C7.7931 8.76859 7.66525 8.91917 7.5871 9.09624C7.50896 9.27331 7.48388 9.46925 7.5149 9.66029C7.54592 9.85133 7.63172 10.0293 7.76187 10.1725L7.76687 10.1781L12 14.6981V19.5C12 19.681 12.049 19.8586 12.142 20.0139C12.235 20.1692 12.3683 20.2963 12.5279 20.3818C12.6874 20.4672 12.8672 20.5078 13.0479 20.4991C13.2287 20.4904 13.4037 20.4328 13.5544 20.3325L15.5544 18.9987C15.6915 18.9074 15.8039 18.7836 15.8816 18.6384C15.9594 18.4932 16 18.331 16 18.1663V14.6981L20.2337 10.1781L20.2387 10.1725C20.3703 10.0299 20.4569 9.85174 20.4878 9.66023C20.5187 9.46872 20.4925 9.27235 20.4125 9.09563ZM15.1362 14.1613C15.0498 14.253 15.0011 14.3739 15 14.5V18.1663L13 19.5V14.5C13 14.373 12.9518 14.2508 12.865 14.1581L8.5 9.5H19.5L15.1362 14.1613Z" stroke="#49454D" stroke-width="0.4" mask="url(#path-5-outside-1_8_1428)"/>
      </svg> 