<svg width="24" height="24" viewBox="0 0 24 24" fill="none" xmlns="http://www.w3.org/2000/svg">
        <path d="M23.5198 14.6904C23.5193 14.6846 23.5182 14.6789 23.5174 14.6732C23.5163 14.6653 23.5153 14.6575 23.5138 14.6497C23.5124 14.6429 23.5106 14.6363 23.5089 14.6296C23.5072 14.623 23.5057 14.6163 23.5038 14.6098C23.5018 14.6031 23.4993 14.5968 23.497 14.5903C23.4947 14.5839 23.4925 14.5773 23.4899 14.5709C23.4874 14.5649 23.4844 14.5591 23.4816 14.5532C23.4785 14.5466 23.4756 14.54 23.4722 14.5336C23.4692 14.528 23.4657 14.5225 23.4624 14.517C23.4587 14.5108 23.4551 14.5044 23.4511 14.4984C23.4469 14.492 23.4421 14.4861 23.4376 14.48C23.4339 14.4752 23.4305 14.4701 23.4266 14.4654C23.409 14.4439 23.3893 14.4242 23.3678 14.4065C23.3631 14.4027 23.3582 14.3994 23.3534 14.3958C23.3472 14.3912 23.3412 14.3864 23.3347 14.3821C23.3287 14.3781 23.3225 14.3746 23.3164 14.3709C23.3108 14.3675 23.3053 14.364 23.2995 14.3609C23.2932 14.3575 23.2867 14.3547 23.2803 14.3517C23.2743 14.3488 23.2683 14.3458 23.2621 14.3432C23.2559 14.3406 23.2496 14.3386 23.2433 14.3363C23.2366 14.3339 23.2301 14.3314 23.2233 14.3293C23.217 14.3275 23.2107 14.3261 23.2043 14.3245C23.1973 14.3227 23.1904 14.3208 23.1833 14.3194C23.176 14.3179 23.1686 14.3171 23.1613 14.316C23.155 14.3151 23.1489 14.3139 23.1426 14.3133C23.1287 14.3119 23.1149 14.3112 23.101 14.3112H20.1546C19.9221 14.3112 19.7337 14.4996 19.7337 14.7321C19.7337 14.9645 19.9221 15.153 20.1546 15.153H22.0849L14.6827 22.5551L12.5601 20.4325C12.4001 20.2725 12.1424 20.2676 11.9765 20.4213L9.43246 22.7768L7.93438 21.2787C7.77004 21.1143 7.50346 21.1143 7.33911 21.2787C7.17472 21.443 7.17472 21.7096 7.33911 21.8739L9.12364 23.6585C9.20568 23.7405 9.31339 23.7818 9.4213 23.7818C9.52377 23.7818 9.62643 23.7446 9.70724 23.6697L12.2512 21.3142L14.385 23.448C14.5494 23.6125 14.816 23.6125 14.9803 23.448L22.6801 15.7483V17.6785C22.6801 17.911 22.8686 18.0995 23.101 18.0995C23.3335 18.0995 23.522 17.911 23.522 17.6785V14.7323C23.522 14.7184 23.5212 14.7044 23.5198 14.6904Z" fill="#FBFEFB"/>
        <path d="M9.84219 18.5204C14.9483 18.5204 19.1023 14.3662 19.1023 9.2602C19.1023 4.15416 14.9483 0 9.84219 0C4.73609 0 0.582031 4.15411 0.582031 9.26016C0.582031 14.3662 4.73609 18.5204 9.84219 18.5204ZM9.84219 1.47319C14.1359 1.47319 17.6292 4.96636 17.6292 9.26016C17.6292 13.554 14.1359 17.0471 9.84219 17.0471C5.54844 17.0471 2.05522 13.554 2.05522 9.26016C2.05522 4.96636 5.54844 1.47319 9.84219 1.47319Z" fill="#FBFEFB"/>
        <path d="M1.52942 23.717C2.01626 23.9981 2.5835 24.0731 3.12641 23.9273C3.66941 23.7818 4.12325 23.4335 4.40431 22.9467L6.75312 18.8784C5.3878 18.4388 4.14851 17.7163 3.10447 16.7798L0.759077 20.8421C0.178859 21.8471 0.524421 23.1368 1.52942 23.717Z" fill="#FBFEFB"/>
        <path d="M10.8951 11.9961V7.57648V5.89282H8.58008V9.89154V11.9961H10.8951Z" fill="#FBFEFB"/>
        <path d="M5.42285 9.89156H7.73791V11.9961H5.42285V9.89156Z" fill="#FBFEFB"/>
        <path d="M11.7363 7.57654H14.0514V11.9961H11.7363V7.57654Z" fill="#FBFEFB"/>
        <path d="M9.8426 16.2053C13.6721 16.2053 16.7877 13.0898 16.7877 9.26016C16.7877 5.43056 13.6721 2.31506 9.8426 2.31506C6.01306 2.31506 2.89746 5.43061 2.89746 9.2602C2.89746 13.0898 6.01306 16.2053 9.8426 16.2053ZM4.58116 12.417V9.89156C4.58116 9.42736 4.95884 9.04974 5.42299 9.04974H7.73806V5.89284C7.73806 5.42864 8.11573 5.05102 8.57988 5.05102H10.8949C11.3591 5.05102 11.7368 5.42864 11.7368 5.89284V6.73467H14.0518C14.516 6.73467 14.8937 7.1123 14.8937 7.5765V12.417C14.8937 12.6495 14.7052 12.838 14.4727 12.838H11.3158H8.15895H5.00205C4.7696 12.838 4.58116 12.6495 4.58116 12.417Z" fill="#FBFEFB"/>
      </svg>